<svg xmlns="http://www.w3.org/2000/svg" width="150" height="35" fill="none" viewBox="0 0 150 35"><path fill="#fff" fill-rule="evenodd" d="M6.78849 0.0840149C3.03931 0.0840149 0 3.12333 0 6.87251V27.238C0 30.9872 3.03931 34.0265 6.78849 34.0265H27.154C30.9032 34.0265 33.9425 30.9872 33.9425 27.238V6.87251C33.9425 3.12333 30.9032 0.0840149 27.154 0.0840149H6.78849ZM11.1781 9.67412C10.8105 9.21149 10.1374 9.1345 9.67476 9.50215C9.21213 9.86981 9.13513 10.5429 9.50279 11.0055L12.1777 14.3715C12.5454 14.8341 13.2185 14.9111 13.6811 14.5435C14.1437 14.1758 14.2207 13.5027 13.8531 13.0401L11.1781 9.67412ZM16.528 9.67412C16.1603 9.21149 15.4873 9.1345 15.0246 9.50215C14.562 9.86981 14.485 10.5429 14.8527 11.0055L16.9986 13.7058L12.1777 19.772C11.868 20.1618 11.868 20.7136 12.1777 21.1034L14.8527 24.4694C15.2203 24.932 15.8934 25.009 16.356 24.6413C16.8187 24.2737 16.8957 23.6006 16.528 23.138L14.3821 20.4377L19.2029 14.3715C19.5127 13.9817 19.5127 13.4298 19.2029 13.0401L16.528 9.67412ZM21.8779 9.67412C21.5102 9.21149 20.8371 9.1345 20.3745 9.50215C19.9119 9.86981 19.8349 10.5429 20.2025 11.0055L22.3484 13.7058L17.5276 19.772C17.2179 20.1618 17.2179 20.7136 17.5276 21.1034L20.2025 24.4694C20.5702 24.932 21.2433 25.009 21.7059 24.6413C22.1685 24.2737 22.2455 23.6006 21.8779 23.138L19.732 20.4377L24.5528 14.3715C24.8626 13.9817 24.8626 13.4298 24.5528 13.0401L21.8779 9.67412Z" clip-rule="evenodd"/><path fill="#fff" d="M61.2224 8.44913L58.3666 20.6142L55.6683 8.44913H51.4409L48.7425 20.6142L45.8867 8.44913H42.0865L46.224 25.2014H50.7663L53.4421 13.3062L56.118 25.2014H60.6603L64.7977 8.44913H61.2224Z"/><path fill="#fff" d="M66.2602 11.8221H69.6332V8.44913H66.2602V11.8221ZM66.2602 25.2014H69.6332V12.9239H66.2602V25.2014Z"/><path fill="#fff" d="M78.4703 12.6541C76.9187 12.6541 75.6595 13.2162 75.0299 14.408V12.9239H71.8818V25.2014H75.2548V18.0283C75.2548 16.6117 76.1767 15.6897 77.5034 15.6897C78.8301 15.6897 79.752 16.6117 79.752 18.0283V25.2014H83.125V17.3087C83.125 14.5204 81.2361 12.6541 78.4703 12.6541Z"/><path fill="#fff" d="M94.2297 8.44913V13.9583C93.3977 13.1263 92.161 12.6541 90.6994 12.6541C87.214 12.6541 84.4706 15.4649 84.4706 19.0627C84.4706 22.638 87.1465 25.4713 90.7218 25.4713C92.2284 25.4713 93.5776 24.9766 94.4546 24.0322V25.2014H97.6027V8.44913H94.2297ZM91.1266 22.4356C89.2827 22.4356 87.956 21.0415 87.956 19.0627C87.956 17.1064 89.2827 15.6897 91.1266 15.6897C92.948 15.6897 94.2297 17.0839 94.2297 19.0627C94.2297 21.064 92.948 22.4356 91.1266 22.4356Z"/><path fill="#fff" d="M106.761 12.6541C105.3 12.6541 104.063 13.1263 103.231 13.9583V8.44913H99.858V25.2014H103.006V24.0322C103.883 24.9766 105.232 25.4713 106.739 25.4713C110.314 25.4713 112.99 22.638 112.99 19.0627C112.99 15.4649 110.247 12.6541 106.761 12.6541ZM106.334 22.4356C104.513 22.4356 103.231 21.064 103.231 19.0627C103.231 17.0839 104.513 15.6897 106.334 15.6897C108.178 15.6897 109.505 17.1064 109.505 19.0627C109.505 21.0415 108.178 22.4356 106.334 22.4356Z"/><path fill="#fff" d="M119.788 12.6541C117.179 12.6541 115.065 13.9583 114.346 15.982L117.247 17.3762C117.606 16.2744 118.596 15.5773 119.788 15.5773C120.912 15.5773 121.676 16.1844 121.676 17.1064V17.5111L117.831 18.3206C115.335 18.8378 113.896 20.0296 113.896 21.851C113.896 23.8972 115.65 25.4713 118.438 25.4713C119.855 25.4713 120.979 25.044 121.901 24.0771V25.2014H125.049V17.1064C125.049 14.4755 122.913 12.6541 119.788 12.6541ZM118.956 22.9978C117.989 22.9978 117.381 22.5481 117.381 21.806C117.381 21.2438 117.741 20.8166 118.438 20.6592L121.676 19.9396V20.5243C121.676 21.896 120.485 22.9978 118.956 22.9978Z"/><path fill="#fff" d="M131.815 25.4713C134.761 25.4713 136.807 23.9197 136.807 21.6486C136.807 19.8947 135.638 18.6354 133.457 18.0508L131.186 17.4437C130.781 17.3312 129.927 17.1064 129.927 16.3643C129.927 15.7347 130.511 15.3524 131.501 15.3524C132.827 15.3524 133.884 15.982 134.289 17.0389L136.807 15.8696C136.02 13.8683 134.019 12.6541 131.501 12.6541C128.622 12.6541 126.666 14.2056 126.666 16.4767C126.666 18.1632 127.745 19.4674 129.972 20.0521L132.13 20.6142C132.557 20.7267 133.547 20.974 133.547 21.7835C133.547 22.4581 132.872 22.8854 131.815 22.8854C130.421 22.8854 129.319 22.1433 128.667 20.7716L126.171 21.9409C126.936 24.1671 129.14 25.4713 131.815 25.4713Z"/><path fill="#fff" d="M150 18.7029C150 15.3075 147.347 12.6541 143.906 12.6541C140.398 12.6541 137.7 15.3749 137.7 19.0402C137.7 22.593 140.241 25.4713 144.131 25.4713C146.65 25.4713 148.673 24.2795 149.415 22.4806L146.717 21.1989C146.245 22.0309 145.368 22.5481 144.176 22.5481C142.512 22.5481 141.41 21.5587 141.208 20.0071H149.843C149.955 19.6698 150 19.1976 150 18.7029ZM141.275 17.5336C141.613 16.117 142.58 15.3524 143.906 15.3524C145.3 15.3524 146.29 16.2294 146.425 17.5336H141.275Z"/></svg>